<svg fill="none" height="378" viewBox="0 0 585 378" width="585" xmlns="http://www.w3.org/2000/svg">
    <path clip-rule="evenodd" d="M92.6313 69.4931C91.47 79.9199 85.178 84.6326 73.7544 83.6309C75.0515 78.027 81.344 73.3144 92.6313 69.4931ZM419.741 195.334C412.677 198.017 402.155 198.278 392.957 197.501C395.529 221.249 391.463 233.847 380.753 235.281C371.234 236.001 356.931 235.873 341.821 232.779C325.146 229.368 312.837 221.783 304.002 220.623C310.256 217.556 325.869 222.939 334.41 223.584C330.944 222.017 315.633 214.811 309.699 214.419C317.679 211.396 330.764 217.013 337.859 218.244C335.795 216.369 324.366 209.278 318.735 207.641C328.262 205.558 340.265 213.461 347.356 214.428C309.791 176.29 284.76 151.434 335.497 105.716C317.587 116.888 305.615 130.876 302.806 143.037C292.218 135.606 282.047 128.383 269.409 125.744C267.082 139.057 262.866 151.156 257.686 160.422C247.988 179.608 235.92 207.959 209.981 209.106C191.151 209.94 174.029 193.419 154.318 190.097C161.733 186.995 177.127 193.9 183.653 194.571C180.493 192.33 171.356 183.977 162.793 183.999C172.596 180.725 181.641 185.371 188.898 187.727C187.325 184.281 185.3 179.714 177.18 178.086C190.962 176.405 200.279 192.939 208.645 183.377C218.57 171.86 216.112 163.335 221.734 134.83C225.74 114.528 232.563 94.0445 242.024 80.1097C233.65 86.574 227.738 96.0743 226.599 97.8437C211.445 83.2382 194.906 83.5867 173.766 96.5685C151.789 106.708 125.544 108.946 95.035 103.289C104.37 97.804 111.968 94.0974 117.823 92.1647C100.709 94.3533 88.2399 102.274 77.3079 112.101C49.7783 128.387 32.6656 129.005 25.9705 113.954C22.0589 100.968 30.4057 87.986 51.011 74.9999C58.0576 55.3905 66.4216 46.4243 76.1037 48.1143C115.447 20.3682 152.968 5.21988 188.675 2.67825C293.27 -7.047 449.295 5.06109 499.91 118.115C499.814 111.13 494.941 97.4553 491.505 92.3853C535.735 89.6849 560.871 179.966 565.46 224.051C568.461 221.682 576.398 217.313 585 217.896C571.231 223.328 557.392 246.141 547.37 248.642C540.625 250.328 532.168 249.093 531.585 242.822C529.026 215.262 524.227 192.908 516.584 174.322C520.046 199.112 522.045 217.891 522.711 230.67C523.605 247.95 520.038 263.124 512.693 279.071C465.584 381.367 194.775 413.822 0 331.016C189.472 376.249 392.361 331.126 465.014 231.804C451.929 245.801 414.097 278.802 396.643 283.731C421.249 258.897 424.869 212.592 419.741 195.334"
        fill="#CAB350"
        fill-rule="evenodd" />
</svg>
